<?xml version="1.0" standalone="no"?>
<!DOCTYPE svg PUBLIC "-//W3C//DTD SVG 20010904//EN"
 "http://www.w3.org/TR/2001/REC-SVG-20010904/DTD/svg10.dtd">
<svg version="1.0" xmlns="http://www.w3.org/2000/svg"
 width="512.000000pt" height="512.000000pt" viewBox="0 0 512.000000 512.000000"
 preserveAspectRatio="xMidYMid meet">
<metadata>
Created by potrace 1.14, written by Peter Selinger 2001-2017
</metadata>
<g transform="translate(0.000000,512.000000) scale(0.100000,-0.100000)"
fill="#000000" stroke="none">
<path d="M2379 5116 c-2 -2 -40 -6 -83 -10 -44 -4 -82 -9 -85 -11 -4 -2 -34
-7 -66 -10 -117 -14 -472 -111 -499 -136 -6 -5 -16 -9 -24 -9 -22 0 -250 -110
-356 -173 -624 -365 -1073 -993 -1215 -1697 -38 -190 -46 -274 -45 -520 0
-184 3 -241 19 -345 3 -16 7 -43 9 -60 14 -91 74 -343 86 -360 4 -5 10 -23 14
-39 19 -79 132 -332 201 -451 63 -109 217 -331 249 -360 6 -5 22 -23 34 -40
78 -103 329 -330 482 -437 304 -212 698 -371 1045 -423 22 -4 51 -8 65 -11
145 -26 530 -26 710 1 200 31 494 112 639 176 424 190 757 450 1037 809 160
206 322 514 401 765 2 6 21 78 42 160 41 158 50 207 68 370 10 90 10 408 1
505 -9 85 -22 172 -37 245 -6 28 -13 61 -15 75 -65 326 -262 732 -501 1030
-274 342 -604 588 -1050 780 -85 37 -376 122 -465 136 -14 2 -38 6 -55 9 -16
3 -50 8 -75 11 -25 3 -56 8 -70 10 -30 6 -455 15 -461 10z m306 -430 c134 -6
166 -9 278 -32 42 -8 88 -17 101 -20 84 -15 303 -93 416 -148 98 -48 248 -133
260 -147 3 -3 15 -11 27 -18 13 -6 67 -47 121 -90 244 -194 437 -431 572 -701
53 -107 57 -115 85 -185 35 -86 98 -301 109 -375 3 -19 7 -44 10 -55 22 -107
30 -477 13 -620 -32 -271 -134 -574 -275 -815 -304 -519 -825 -892 -1412
-1010 -52 -10 -122 -21 -155 -25 -33 -3 -69 -8 -80 -10 -11 -2 -59 -4 -107 -4
-82 -1 -88 -2 -88 -22 0 -19 -5 -20 -94 -18 -160 3 -360 37 -546 94 -63 19
-203 71 -226 83 -10 6 -57 29 -103 52 -46 23 -108 57 -137 76 -30 18 -57 34
-60 34 -2 0 -10 5 -17 10 -7 6 -52 40 -102 77 -288 213 -517 503 -667 843 -64
143 -127 347 -144 458 -3 20 -7 44 -9 52 -2 8 -7 42 -11 75 -3 33 -8 74 -10
90 -5 43 -4 323 1 370 2 22 7 64 10 93 8 76 53 289 65 312 6 11 8 20 6 20 -9
0 64 201 105 288 21 46 39 85 39 87 0 9 108 189 152 255 92 135 200 258 360
407 53 50 200 157 301 219 278 173 618 280 948 300 57 4 105 8 107 9 2 2 11 1
20 -1 9 -1 71 -5 137 -8z"/>
<path d="M2389 3829 c-559 -83 -998 -510 -1093 -1064 -20 -116 -14 -345 12
-465 69 -319 250 -595 512 -782 155 -110 355 -192 545 -222 87 -14 322 -15
390 -2 156 31 235 56 360 116 244 117 451 316 578 558 55 104 108 258 124 357
3 17 9 50 13 75 13 68 5 315 -13 402 -49 242 -161 457 -330 635 -186 194 -410
320 -678 379 -84 18 -333 26 -420 13z"/>
</g>
</svg>
